<svg width="58" height="82" viewBox="0 0 58 82" fill="none" xmlns="http://www.w3.org/2000/svg">
<path d="M51.0095 27.8015C53.9055 26.0639 55.9327 23.4575 57.0911 20.2719C58.2495 17.0863 58.2495 13.9008 57.3807 10.7152C56.5119 7.52958 54.4847 4.92318 51.8783 2.89599C49.2719 0.868797 45.7967 0 42.6112 0H15.968C12.4929 0 9.30726 1.1584 6.70087 2.89599C3.51528 4.92318 1.77769 7.81917 0.619289 10.7152C-0.249508 13.9008 -0.249507 17.3759 0.90889 20.2719C2.06729 23.4575 4.09448 26.0639 6.99047 27.8015C4.96328 29.2495 2.93608 30.9871 1.77769 33.3039C0.61929 35.6207 0.0400918 37.9375 0.0400918 40.5439C0.0400918 43.1503 0.61929 45.4671 1.77769 47.7838C2.93608 50.1006 4.67368 51.8382 6.99047 53.2862C4.09448 55.0238 2.06729 57.6302 0.90889 60.8158C-0.249507 64.0014 -0.249508 67.187 0.619289 70.3726C1.48809 73.5582 3.51528 76.1646 6.41127 78.1917C9.01766 80.2189 12.4929 81.0877 15.6784 81.0877C19.7328 81.0877 23.7872 79.3502 26.9728 76.7438C29.8688 73.8478 31.6064 70.083 31.6064 66.0286V52.1278C34.5024 54.7342 38.2672 56.1822 42.032 56.1822H42.3216C45.7967 56.1822 48.9823 55.0238 51.5887 53.2862C54.1951 51.259 56.2223 48.6526 57.0911 45.4671C57.9599 42.2815 57.9599 39.0959 56.8015 35.9103C55.9327 32.1455 53.6159 29.5391 51.0095 27.8015ZM31.6064 4.92318H42.3216C43.7696 4.92318 45.2175 4.92318 46.3759 5.50238C47.8239 6.08158 48.9823 6.66078 49.8511 7.81917C51.0095 8.68797 51.5887 9.84637 52.1679 11.2944C52.7471 12.7424 53.0367 13.9008 53.0367 15.3488C53.0367 16.7967 52.7471 18.2447 52.1679 19.4031C51.5887 20.5615 50.7199 21.7199 49.8511 22.8783C48.6927 23.7471 47.5343 24.6159 46.3759 25.1951C44.9279 25.7743 43.48 25.7743 42.3216 25.7743H31.6064V4.92318ZM15.6784 4.92318H26.3936V25.1951H15.6784C13.0721 25.1951 10.4657 24.0367 8.72806 22.0095C6.70087 20.2719 5.83207 17.6655 5.83207 15.0592C5.83207 12.4528 6.99047 9.84637 8.72806 8.10878C10.4657 6.37118 13.0721 5.21278 15.6784 4.92318ZM5.25288 40.5439C5.25288 37.9375 6.41127 35.3311 8.43846 33.3039C10.4657 31.2767 13.0721 30.4079 15.968 30.4079H26.6832V50.6798H15.968C13.0721 50.6798 10.4657 49.5214 8.43846 47.7838C6.41127 45.7567 5.25288 43.1503 5.25288 40.5439ZM26.3936 65.739C26.3936 68.635 25.2352 71.2414 23.208 72.979C21.1808 75.0062 18.5744 75.875 15.6784 75.875C14.2304 75.875 12.7825 75.875 11.6241 75.2958C10.1761 74.7166 9.01766 74.1374 8.14887 73.2686C6.99047 72.3998 6.41127 71.2414 5.83207 69.7934C5.25288 68.635 4.96328 67.187 4.96328 65.739C4.96328 64.291 5.25288 62.843 5.83207 61.6846C6.41127 60.5262 7.28007 59.3678 8.14887 58.2094C9.30726 57.3406 10.4657 56.4718 11.6241 55.8926C13.0721 55.3134 14.52 55.3134 15.6784 55.3134H26.3936V65.739ZM42.3216 50.6798H42.032C39.4256 50.6798 36.8192 49.5214 35.0816 47.4942C33.344 45.4671 32.1856 43.1503 32.1856 40.5439C32.1856 37.9375 33.344 35.3311 35.0816 33.5935C36.8192 31.5663 39.4256 30.6975 42.032 30.4079H42.3216C43.7696 30.4079 45.2175 30.4079 46.3759 30.9871C47.8239 31.5663 48.9823 32.1455 49.8511 33.3039C51.0095 34.1727 51.5887 35.3311 52.1679 36.7791C52.7471 37.9375 53.0367 39.3855 53.0367 40.8335C53.0367 42.2815 52.7471 43.7295 52.1679 44.8879C51.5887 46.0463 50.7199 47.2047 49.8511 48.363C48.6927 49.2318 47.5343 50.1006 46.3759 50.6798H42.3216Z" fill="black"/>
</svg>
