<svg width="33" height="27" viewBox="0 0 33 27" fill="none" xmlns="http://www.w3.org/2000/svg">
<path d="M32.056 3.87548C30.8832 4.40858 29.619 4.7589 28.3091 4.92644C29.6495 4.11918 30.6852 2.83975 31.1726 1.30139C29.9084 2.06296 28.5071 2.59605 27.0297 2.90068C25.8264 1.59079 24.1357 0.829224 22.2166 0.829224C18.6372 0.829224 15.7128 3.75363 15.7128 7.36345C15.7128 7.88131 15.7737 8.38394 15.8804 8.85611C10.458 8.58195 5.62971 5.9774 2.41591 2.0325C1.85235 2.99207 1.53249 4.11918 1.53249 5.30722C1.53249 7.57669 2.67484 9.58722 4.44167 10.7296C3.36025 10.7296 2.35498 10.4249 1.47157 9.968V10.0137C1.47157 13.1818 3.7258 15.832 6.71113 16.4261C5.75267 16.6884 4.74644 16.7249 3.77149 16.5327C4.18518 17.8311 4.99538 18.9673 6.0882 19.7814C7.18101 20.5956 8.50149 21.0468 9.86401 21.0716C7.55438 22.9 4.69146 23.8884 1.74573 23.8742C1.22787 23.8742 0.710003 23.8437 0.192139 23.7828C3.08608 25.641 6.52836 26.7224 10.2143 26.7224C22.2166 26.7224 28.8117 16.7612 28.8117 8.12501C28.8117 7.83562 28.8117 7.56145 28.7965 7.27206C30.0759 6.35818 31.1726 5.2006 32.056 3.87548Z" fill="black"/>
</svg>
