<svg width="28" height="28" viewBox="0 0 28 28" fill="none" xmlns="http://www.w3.org/2000/svg">
<path d="M25.1594 19.0198L21.2907 18.5781C20.8358 18.5246 20.3747 18.575 19.942 18.7254C19.5094 18.8758 19.1164 19.1222 18.7927 19.4463L15.9902 22.2488C11.6663 20.0498 8.15182 16.5353 5.95275 12.2114L8.77054 9.39361C9.42549 8.73866 9.74535 7.82478 9.63873 6.89568L9.19702 3.05739C9.11067 2.31437 8.75408 1.62906 8.19516 1.13192C7.63624 0.634791 6.91401 0.360563 6.16599 0.361452H3.53098C1.80984 0.361452 0.378102 1.79319 0.484721 3.51433C1.29198 16.5219 11.695 26.9096 24.6872 27.7169C26.4084 27.8235 27.8401 26.3917 27.8401 24.6706V22.0356C27.8553 20.4972 26.6978 19.2026 25.1594 19.0198Z" fill="black"/>
</svg>
