<svg width="32" height="31" viewBox="0 0 32 31" fill="none" xmlns="http://www.w3.org/2000/svg">
<path d="M8.96916 25.3823L10.0719 26.0266C11.9316 27.1112 14.0466 27.6806 16.1995 27.6762C18.6094 27.6762 20.9653 26.9615 22.9691 25.6226C24.9729 24.2837 26.5347 22.3807 27.457 20.1541C28.3792 17.9276 28.6205 15.4776 28.1504 13.1139C27.6802 10.7503 26.5197 8.57911 24.8156 6.875C23.1115 5.17089 20.9403 4.01038 18.5766 3.54022C16.213 3.07006 13.763 3.31136 11.5364 4.23362C9.30992 5.15587 7.40688 6.71766 6.06797 8.72148C4.72906 10.7253 4.01442 13.0811 4.01442 15.4911C4.00997 17.6446 4.57991 19.7603 5.66549 21.6202L6.30825 22.7229L5.31365 26.38L8.96916 25.3823ZM0.974254 30.7224L3.03352 23.1555C1.67656 20.8295 0.963664 18.184 0.968161 15.4911C0.968161 7.07888 7.78721 0.259827 16.1995 0.259827C24.6117 0.259827 31.4307 7.07888 31.4307 15.4911C31.4307 23.9034 24.6117 30.7224 16.1995 30.7224C13.5077 30.7268 10.8634 30.0144 8.53811 28.6586L0.974254 30.7224ZM10.7025 8.3446C10.9066 8.32936 11.1122 8.32936 11.3163 8.3385C11.3985 8.3446 11.4808 8.35373 11.563 8.36287C11.8052 8.39029 12.0718 8.53803 12.1616 8.74213C12.6155 9.77177 13.0572 10.809 13.4837 11.8493C13.5781 12.0808 13.5218 12.3778 13.3421 12.6672C13.2507 12.815 13.1075 13.0221 12.9415 13.2338C12.7694 13.4547 12.3992 13.8598 12.3992 13.8598C12.3992 13.8598 12.2485 14.0396 12.3063 14.2635C12.3277 14.3488 12.3977 14.4721 12.4617 14.5757L12.5516 14.7204C12.9415 15.3708 13.4654 16.0303 14.1051 16.6517C14.2879 16.8284 14.4661 17.0097 14.658 17.1787C15.3709 17.8078 16.1781 18.3211 17.0494 18.7019L17.057 18.7049C17.1864 18.7613 17.2519 18.7917 17.4408 18.8725C17.5352 18.9121 17.6327 18.9456 17.7317 18.973C17.834 18.999 17.9418 18.9941 18.0413 18.9589C18.1408 18.9236 18.2276 18.8596 18.2907 18.775C19.3935 17.4392 19.494 17.3524 19.5031 17.3524V17.3554C19.5797 17.284 19.6707 17.2297 19.77 17.1964C19.8694 17.163 19.9746 17.1513 20.0789 17.162C20.1702 17.1681 20.2632 17.1848 20.3485 17.2229C21.1572 17.593 22.4808 18.1703 22.4808 18.1703L23.3673 18.5678C23.5166 18.6394 23.6521 18.8085 23.6567 18.9715C23.6628 19.0735 23.6719 19.238 23.6369 19.5396C23.5882 19.9341 23.4693 20.4078 23.3505 20.656C23.2691 20.8254 23.1611 20.9807 23.0307 21.116C22.877 21.2774 22.7087 21.4242 22.5281 21.5547C22.4032 21.6491 22.3377 21.6918 22.3377 21.6918C22.1482 21.8119 21.9535 21.9237 21.7543 22.0269C21.3621 22.2352 20.929 22.3548 20.4855 22.3772C20.2038 22.3924 19.922 22.4137 19.6387 22.3985C19.6265 22.3985 18.7735 22.266 18.7735 22.266C16.608 21.6964 14.6053 20.6293 12.9247 19.1497C12.5805 18.8466 12.2606 18.5206 11.9347 18.1962C10.5822 16.8482 9.55709 15.3936 8.93413 14.0198C8.61687 13.3458 8.44559 12.6124 8.43149 11.8676C8.42577 10.9427 8.72859 10.0422 9.29206 9.30874C9.40325 9.16556 9.50835 9.0163 9.6896 8.84418C9.88151 8.66141 10.0049 8.56393 10.1374 8.49691C10.3136 8.40862 10.5058 8.35681 10.7025 8.3446Z" fill="black"/>
</svg>
