<svg width="32" height="22" viewBox="0 0 32 22" fill="none" xmlns="http://www.w3.org/2000/svg">
<path d="M13.0737 15.6299L20.9787 11.0605L13.0737 6.49114V15.6299ZM30.6811 3.70381C30.8791 4.41968 31.0162 5.37925 31.1076 6.59776C31.2142 7.81626 31.2599 8.86722 31.2599 9.7811L31.3513 11.0605C31.3513 14.3962 31.1076 16.8484 30.6811 18.4172C30.3003 19.7881 29.4169 20.6715 28.0461 21.0523C27.3302 21.2503 26.0203 21.3873 24.0098 21.4787C22.0297 21.5853 20.2172 21.631 18.5417 21.631L16.12 21.7224C9.73805 21.7224 5.76269 21.4787 4.19386 21.0523C2.82305 20.6715 1.93963 19.7881 1.55885 18.4172C1.36084 17.7014 1.22376 16.7418 1.13237 15.5233C1.02575 14.3048 0.98006 13.2538 0.98006 12.34L0.888672 11.0605C0.888672 7.72487 1.13237 5.27263 1.55885 3.70381C1.93963 2.33299 2.82305 1.44958 4.19386 1.0688C4.90973 0.870791 6.21962 0.733709 8.23015 0.642321C10.2102 0.535702 12.0227 0.490008 13.6982 0.490008L16.12 0.398621C22.5019 0.398621 26.4772 0.642321 28.0461 1.0688C29.4169 1.44958 30.3003 2.33299 30.6811 3.70381Z" fill="black"/>
</svg>
